<svg xmlns="http://www.w3.org/2000/svg" xmlns:xlink="http://www.w3.org/1999/xlink" width="500" zoomAndPan="magnify" viewBox="0 0 375 374.999991" height="500" preserveAspectRatio="xMidYMid meet" version="1.0"><defs><g/><clipPath id="966d94c4c7"><rect x="0" width="157" y="0" height="260"/></clipPath></defs><g transform="matrix(1, 0, 0, 1, 188, 84)"><g clip-path="url(#966d94c4c7)"><g fill="#fcd34d" fill-opacity="1"><g transform="translate(1.064018, 197.315012)"><g><path d="M 72.441406 3.246094 L 4.542969 3.246094 L 4.542969 -6.621094 L 7.789062 -6.621094 C 13.417969 -6.621094 17.398438 -7.328125 19.738281 -8.746094 C 21.550781 -9.847656 22.460938 -12.730469 22.460938 -17.394531 L 22.460938 -171.882812 C 22.460938 -176.691406 21.574219 -179.605469 19.800781 -180.625 C 17.445312 -181.980469 13.441406 -182.660156 7.789062 -182.660156 L 4.542969 -182.660156 L 4.542969 -192.527344 L 136.316406 -192.527344 L 152.238281 -144.75 L 142.128906 -144.75 L 141.328125 -146.835938 C 137.011719 -158.136719 132.179688 -166.253906 126.839844 -171.1875 C 121.582031 -176.046875 115.664062 -179.113281 109.085938 -180.378906 C 102.085938 -181.730469 94.089844 -182.488281 85.101562 -182.660156 L 54.523438 -182.660156 L 54.523438 -185.90625 L 57.769531 -185.90625 L 57.769531 -101 L 54.523438 -101 L 54.523438 -104.246094 L 84.644531 -104.246094 C 92.859375 -104.410156 98.84375 -105.597656 102.59375 -107.820312 C 106.03125 -109.851562 108.292969 -113.3125 109.386719 -118.199219 C 110.632812 -123.761719 111.257812 -131.273438 111.257812 -140.726562 L 111.257812 -143.972656 L 121.125 -143.972656 L 121.125 -51.539062 L 111.257812 -51.539062 L 111.257812 -54.785156 C 111.257812 -65.464844 110.628906 -73.8125 109.378906 -79.828125 C 108.269531 -85.144531 105.996094 -88.855469 102.550781 -90.964844 C 98.832031 -93.242188 92.863281 -94.378906 84.644531 -94.378906 L 54.523438 -94.378906 L 54.523438 -97.625 L 57.769531 -97.625 L 57.769531 -16.875 C 57.769531 -12.261719 58.6875 -9.441406 60.523438 -8.414062 C 62.972656 -7.046875 66.945312 -6.359375 72.441406 -6.359375 L 75.6875 -6.359375 L 75.6875 3.246094 Z M 72.441406 -3.246094 L 72.441406 0 L 69.195312 0 L 69.195312 -3.117188 L 72.441406 -3.117188 L 72.441406 0.128906 C 65.820312 0.128906 60.789062 -0.828125 57.355469 -2.75 C 53.304688 -5.011719 51.28125 -9.722656 51.28125 -16.875 L 51.28125 -100.871094 L 84.644531 -100.871094 C 94.082031 -100.871094 101.179688 -99.414062 105.941406 -96.5 C 110.980469 -93.414062 114.242188 -88.296875 115.734375 -81.152344 C 117.078125 -74.703125 117.75 -65.914062 117.75 -54.785156 L 114.503906 -54.785156 L 114.503906 -58.03125 L 117.878906 -58.03125 L 117.878906 -54.785156 L 114.632812 -54.785156 L 114.632812 -140.726562 L 117.878906 -140.726562 L 117.878906 -137.480469 L 114.503906 -137.480469 L 114.503906 -140.726562 L 117.75 -140.726562 C 117.75 -130.792969 117.074219 -122.8125 115.722656 -116.78125 C 114.21875 -110.066406 110.945312 -105.21875 105.898438 -102.234375 C 101.167969 -99.433594 94.082031 -97.941406 84.644531 -97.753906 L 51.28125 -97.753906 L 51.28125 -189.148438 L 85.222656 -189.148438 C 94.585938 -188.972656 102.949219 -188.175781 110.3125 -186.753906 C 118.101562 -185.253906 125.082031 -181.652344 131.246094 -175.953125 C 137.328125 -170.332031 142.710938 -161.398438 147.394531 -149.15625 L 144.363281 -147.996094 L 144.363281 -151.242188 L 147.738281 -151.242188 L 147.738281 -147.996094 L 144.65625 -146.96875 L 130.898438 -188.253906 L 133.976562 -189.28125 L 133.976562 -186.035156 L 7.789062 -186.035156 L 7.789062 -189.28125 L 11.035156 -189.28125 L 11.035156 -185.90625 L 7.789062 -185.90625 L 7.789062 -189.148438 C 14.597656 -189.148438 19.683594 -188.183594 23.039062 -186.25 C 26.980469 -183.980469 28.949219 -179.191406 28.949219 -171.882812 L 28.949219 -17.394531 C 28.949219 -10.292969 27 -5.558594 23.101562 -3.195312 C 19.730469 -1.152344 14.625 -0.128906 7.789062 -0.128906 L 7.789062 -3.375 L 11.035156 -3.375 L 11.035156 0 L 7.789062 0 L 7.789062 -3.246094 Z M 72.441406 -3.246094 "/></g></g></g><g fill="#fcd34d" fill-opacity="1"><g transform="translate(1.064018, 197.315012)"><g><path d="M 72.4375 0 L 7.796875 0 L 7.796875 -3.375 C 14.023438 -3.375 18.566406 -4.238281 21.421875 -5.96875 C 24.273438 -7.695312 25.703125 -11.503906 25.703125 -17.390625 L 25.703125 -171.875 C 25.703125 -177.9375 24.273438 -181.789062 21.421875 -183.4375 C 18.566406 -185.082031 14.023438 -185.90625 7.796875 -185.90625 L 7.796875 -189.28125 L 133.96875 -189.28125 L 147.734375 -148 L 144.359375 -148 C 139.859375 -159.769531 134.75 -168.289062 129.03125 -173.5625 C 123.320312 -178.84375 116.875 -182.175781 109.6875 -183.5625 C 102.507812 -184.945312 94.332031 -185.726562 85.15625 -185.90625 L 54.53125 -185.90625 L 54.53125 -101 L 84.640625 -101 C 93.472656 -101.175781 100.007812 -102.519531 104.25 -105.03125 C 108.488281 -107.539062 111.253906 -111.691406 112.546875 -117.484375 C 113.847656 -123.285156 114.5 -131.03125 114.5 -140.71875 L 117.875 -140.71875 L 117.875 -54.78125 L 114.5 -54.78125 C 114.5 -65.6875 113.847656 -74.253906 112.546875 -80.484375 C 111.253906 -86.710938 108.488281 -91.125 104.25 -93.71875 C 100.007812 -96.320312 93.472656 -97.625 84.640625 -97.625 L 54.53125 -97.625 L 54.53125 -16.875 C 54.53125 -10.988281 56 -7.222656 58.9375 -5.578125 C 61.882812 -3.929688 66.382812 -3.109375 72.4375 -3.109375 Z M 72.4375 0 "/></g></g></g></g></g><g fill="#fcd34d" fill-opacity="1"><g transform="translate(16.828818, 285.444882)"><g><path d="M 106.777344 6.539062 C 87.84375 6.539062 71.082031 2.25 56.5 -6.335938 C 41.914062 -14.921875 30.511719 -26.738281 22.296875 -41.78125 C 14.105469 -56.78125 10.011719 -73.910156 10.011719 -93.164062 C 10.011719 -107.945312 12.203125 -121.828125 16.59375 -134.808594 C 21 -147.851562 27.4375 -159.335938 35.898438 -169.273438 C 44.40625 -179.257812 54.710938 -187.023438 66.816406 -192.566406 C 78.914062 -198.109375 92.589844 -200.878906 107.847656 -200.878906 C 116.761719 -200.878906 124.242188 -199.839844 130.289062 -197.761719 C 136.121094 -195.753906 141.0625 -193.738281 145.109375 -191.714844 C 148.554688 -189.992188 151.441406 -189.132812 153.761719 -189.132812 C 154.644531 -189.132812 155.59375 -189.5 156.613281 -190.234375 C 157.292969 -190.726562 157.632812 -192.183594 157.632812 -194.605469 L 157.632812 -197.941406 L 167.777344 -197.941406 L 167.777344 -124.265625 L 157.898438 -124.265625 L 157.898438 -127.601562 C 157.898438 -149.164062 153.652344 -164.609375 145.15625 -173.9375 C 136.742188 -183.179688 125.105469 -187.796875 110.25 -187.796875 C 98.988281 -187.796875 88.742188 -184.777344 79.507812 -178.730469 C 70.253906 -172.671875 62.820312 -163.613281 57.214844 -151.554688 C 51.550781 -139.363281 48.71875 -124.171875 48.71875 -105.976562 C 48.71875 -87.90625 51.570312 -71.914062 57.277344 -57.992188 C 62.910156 -44.253906 71.027344 -33.570312 81.632812 -25.933594 C 92.175781 -18.34375 104.738281 -14.546875 119.324219 -14.546875 C 131.449219 -14.546875 141.363281 -17.199219 149.066406 -22.503906 C 156.8125 -27.832031 162.515625 -34.78125 166.175781 -43.355469 C 169.914062 -52.101562 171.78125 -61.496094 171.78125 -71.542969 L 171.78125 -74.878906 L 181.925781 -74.878906 L 181.925781 -71.542969 C 181.925781 -61.949219 180.496094 -52.546875 177.636719 -43.324219 C 174.75 -34.015625 170.234375 -25.589844 164.089844 -18.046875 C 157.894531 -10.441406 150.070312 -4.441406 140.621094 -0.0429688 C 131.1875 4.34375 119.90625 6.539062 106.777344 6.539062 Z M 106.777344 -0.132812 C 118.921875 -0.132812 129.265625 -2.121094 137.804688 -6.09375 C 146.328125 -10.0625 153.367188 -15.449219 158.917969 -22.261719 C 164.515625 -29.136719 168.632812 -36.816406 171.261719 -45.300781 C 173.921875 -53.878906 175.25 -62.625 175.25 -71.542969 L 178.585938 -71.542969 L 178.585938 -68.203125 L 175.117188 -68.203125 L 175.117188 -71.542969 L 178.453125 -71.542969 C 178.453125 -60.585938 176.40625 -50.316406 172.3125 -40.734375 C 168.144531 -30.976562 161.65625 -23.066406 152.851562 -17.003906 C 144.003906 -10.917969 132.832031 -7.875 119.324219 -7.875 C 103.304688 -7.875 89.4375 -12.089844 77.734375 -20.515625 C 66.09375 -28.898438 57.21875 -40.546875 51.101562 -55.460938 C 45.0625 -70.191406 42.042969 -87.03125 42.042969 -105.976562 C 42.042969 -125.15625 45.085938 -141.285156 51.164062 -154.367188 C 57.304688 -167.578125 65.535156 -177.5625 75.855469 -184.316406 C 86.199219 -191.085938 97.664062 -194.472656 110.25 -194.472656 C 127.070312 -194.472656 140.351562 -189.125 150.089844 -178.433594 C 159.746094 -167.828125 164.574219 -150.886719 164.574219 -127.601562 L 161.234375 -127.601562 L 161.234375 -130.9375 L 164.441406 -130.9375 L 164.441406 -127.601562 L 161.101562 -127.601562 L 161.101562 -194.605469 L 164.441406 -194.605469 L 164.441406 -191.269531 L 160.96875 -191.269531 L 160.96875 -194.605469 L 164.304688 -194.605469 C 164.304688 -189.90625 163.042969 -186.648438 160.519531 -184.824219 C 158.335938 -183.246094 156.082031 -182.457031 153.761719 -182.457031 C 150.390625 -182.457031 146.511719 -183.554688 142.125 -185.746094 C 138.34375 -187.640625 133.671875 -189.539062 128.117188 -191.449219 C 122.773438 -193.285156 116.015625 -194.203125 107.847656 -194.203125 C 93.5625 -194.203125 80.808594 -191.636719 69.59375 -186.5 C 58.386719 -181.363281 48.847656 -174.179688 40.980469 -164.945312 C 33.070312 -155.660156 27.050781 -144.902344 22.914062 -132.671875 C 18.761719 -120.382812 16.683594 -107.214844 16.683594 -93.164062 C 16.683594 -75.046875 20.507812 -58.984375 28.15625 -44.976562 C 35.78125 -31.011719 46.359375 -20.050781 59.886719 -12.085938 C 73.425781 -4.117188 89.054688 -0.132812 106.777344 -0.132812 Z M 106.777344 -0.132812 "/></g></g></g><g fill="#fcd34d" fill-opacity="1"><g transform="translate(16.828818, 285.444882)"><g><path d="M 106.78125 3.203125 C 88.445312 3.203125 72.25 -0.929688 58.1875 -9.203125 C 44.132812 -17.484375 33.144531 -28.875 25.21875 -43.375 C 17.300781 -57.882812 13.34375 -74.484375 13.34375 -93.171875 C 13.34375 -107.585938 15.476562 -121.113281 19.75 -133.75 C 24.019531 -146.382812 30.25 -157.503906 38.4375 -167.109375 C 46.625 -176.722656 56.546875 -184.195312 68.203125 -189.53125 C 79.859375 -194.875 93.070312 -197.546875 107.84375 -197.546875 C 116.382812 -197.546875 123.503906 -196.566406 129.203125 -194.609375 C 134.898438 -192.648438 139.707031 -190.691406 143.625 -188.734375 C 147.539062 -186.773438 150.921875 -185.796875 153.765625 -185.796875 C 155.367188 -185.796875 156.96875 -186.375 158.5625 -187.53125 C 160.164062 -188.6875 160.96875 -191.046875 160.96875 -194.609375 L 164.4375 -194.609375 L 164.4375 -127.609375 L 161.234375 -127.609375 C 161.234375 -150.023438 156.695312 -166.21875 147.625 -176.1875 C 138.550781 -186.15625 126.09375 -191.140625 110.25 -191.140625 C 98.320312 -191.140625 87.460938 -187.9375 77.671875 -181.53125 C 67.890625 -175.125 60.0625 -165.601562 54.1875 -152.96875 C 48.3125 -140.332031 45.375 -124.671875 45.375 -105.984375 C 45.375 -87.472656 48.3125 -71.050781 54.1875 -56.71875 C 60.0625 -42.394531 68.5625 -31.226562 79.6875 -23.21875 C 90.8125 -15.21875 104.023438 -11.21875 119.328125 -11.21875 C 132.140625 -11.21875 142.679688 -14.0625 150.953125 -19.75 C 159.234375 -25.445312 165.332031 -32.878906 169.25 -42.046875 C 173.164062 -51.210938 175.125 -61.046875 175.125 -71.546875 L 178.59375 -71.546875 C 178.59375 -62.285156 177.210938 -53.207031 174.453125 -44.3125 C 171.691406 -35.414062 167.375 -27.363281 161.5 -20.15625 C 155.632812 -12.945312 148.207031 -7.25 139.21875 -3.0625 C 130.226562 1.113281 119.414062 3.203125 106.78125 3.203125 Z M 106.78125 3.203125 "/></g></g></g></svg>