<svg xmlns="http://www.w3.org/2000/svg" xmlns:xlink="http://www.w3.org/1999/xlink" width="500" zoomAndPan="magnify" viewBox="0 0 375 374.999991" height="500" preserveAspectRatio="xMidYMid meet" version="1.0"><defs><g/><clipPath id="cc54c1ace8"><rect x="0" width="157" y="0" height="260"/></clipPath><clipPath id="e7985165e0"><rect x="0" width="199" y="0" height="279"/></clipPath><clipPath id="8bcbfde785"><rect x="0" width="176" y="0" height="30"/></clipPath></defs><rect x="-37.5" width="450" fill="#ffffff" y="-37.499999" height="449.999989" fill-opacity="1"/><rect x="-37.5" width="450" fill="#ffffff" y="-37.499999" height="449.999989" fill-opacity="1"/><g transform="matrix(1, 0, 0, 1, 140, 61)"><g clip-path="url(#cc54c1ace8)"><g fill="#000000" fill-opacity="1"><g transform="translate(1.067609, 197.244562)"><g><path d="M 72.4375 0 L 7.796875 0 L 7.796875 -3.375 C 14.023438 -3.375 18.566406 -4.238281 21.421875 -5.96875 C 24.273438 -7.695312 25.703125 -11.503906 25.703125 -17.390625 L 25.703125 -171.875 C 25.703125 -177.9375 24.273438 -181.789062 21.421875 -183.4375 C 18.566406 -185.082031 14.023438 -185.90625 7.796875 -185.90625 L 7.796875 -189.28125 L 133.96875 -189.28125 L 147.734375 -148 L 144.359375 -148 C 139.859375 -159.769531 134.75 -168.289062 129.03125 -173.5625 C 123.320312 -178.84375 116.875 -182.175781 109.6875 -183.5625 C 102.507812 -184.945312 94.332031 -185.726562 85.15625 -185.90625 L 54.53125 -185.90625 L 54.53125 -101 L 84.640625 -101 C 93.472656 -101.175781 100.007812 -102.519531 104.25 -105.03125 C 108.488281 -107.539062 111.253906 -111.691406 112.546875 -117.484375 C 113.847656 -123.285156 114.5 -131.03125 114.5 -140.71875 L 117.875 -140.71875 L 117.875 -54.78125 L 114.5 -54.78125 C 114.5 -65.6875 113.847656 -74.253906 112.546875 -80.484375 C 111.253906 -86.710938 108.488281 -91.125 104.25 -93.71875 C 100.007812 -96.320312 93.472656 -97.625 84.640625 -97.625 L 54.53125 -97.625 L 54.53125 -16.875 C 54.53125 -10.988281 56 -7.222656 58.9375 -5.578125 C 61.882812 -3.929688 66.382812 -3.109375 72.4375 -3.109375 Z M 72.4375 0 "/></g></g></g></g></g><g transform="matrix(1, 0, 0, 1, 66, 41)"><g clip-path="url(#e7985165e0)"><g fill="#ffffff" fill-opacity="1"><g transform="translate(2.86456, 214.736573)"><g><path d="M 106.777344 16.882812 C 85.960938 16.882812 67.453125 12.117188 51.253906 2.582031 C 35.023438 -6.972656 22.34375 -20.105469 13.21875 -36.820312 C 4.183594 -53.371094 -0.332031 -72.148438 -0.332031 -93.164062 C -0.332031 -109.078125 2.042969 -124.0625 6.792969 -138.121094 C 11.625 -152.414062 18.703125 -165.035156 28.023438 -175.980469 C 37.519531 -187.125 49.015625 -195.789062 62.507812 -201.96875 C 75.972656 -208.136719 91.085938 -211.21875 107.847656 -211.21875 C 117.910156 -211.21875 126.511719 -209.992188 133.648438 -207.539062 C 139.917969 -205.386719 145.277344 -203.195312 149.734375 -200.964844 C 151.722656 -199.972656 153.066406 -199.476562 153.761719 -199.476562 C 152.414062 -199.476562 151.34375 -199.191406 150.554688 -198.621094 C 148.996094 -197.492188 147.949219 -196.140625 147.414062 -194.5625 C 147.328125 -194.320312 147.277344 -194.128906 147.261719 -193.992188 C 147.277344 -194.125 147.285156 -194.328125 147.285156 -194.601562 L 147.285156 -208.285156 L 178.117188 -208.285156 L 178.117188 -113.917969 L 147.554688 -113.917969 L 147.554688 -127.601562 C 147.554688 -146.492188 144.203125 -159.617188 137.503906 -166.972656 C 131.144531 -173.957031 122.058594 -177.453125 110.25 -177.453125 C 101.042969 -177.453125 92.6875 -174.992188 85.171875 -170.074219 C 77.5625 -165.09375 71.371094 -157.46875 66.597656 -147.191406 C 61.574219 -136.386719 59.0625 -122.648438 59.0625 -105.976562 C 59.0625 -89.265625 61.65625 -74.578125 66.847656 -61.914062 C 71.730469 -50.003906 78.671875 -40.808594 87.675781 -34.328125 C 96.414062 -28.039062 106.960938 -24.894531 119.324219 -24.894531 C 129.300781 -24.894531 137.261719 -26.9375 143.203125 -31.023438 C 149.296875 -35.21875 153.785156 -40.683594 156.660156 -47.417969 C 159.84375 -54.867188 161.433594 -62.90625 161.433594 -71.542969 L 161.433594 -85.222656 L 192.265625 -85.222656 L 192.265625 -71.542969 C 192.265625 -60.90625 190.683594 -50.480469 187.515625 -40.261719 C 184.234375 -29.675781 179.097656 -20.089844 172.109375 -11.511719 C 164.910156 -2.679688 155.871094 4.269531 144.984375 9.335938 C 134.167969 14.367188 121.429688 16.882812 106.777344 16.882812 Z M 106.777344 -10.476562 C 117.394531 -10.476562 126.28125 -12.144531 133.441406 -15.472656 C 140.527344 -18.773438 146.347656 -23.214844 150.894531 -28.796875 C 155.652344 -34.632812 159.144531 -41.15625 161.378906 -48.363281 C 163.730469 -55.941406 164.90625 -63.667969 164.90625 -71.542969 L 178.585938 -71.542969 L 178.585938 -57.859375 L 175.117188 -57.859375 L 175.117188 -71.542969 L 188.796875 -71.542969 C 188.796875 -59.175781 186.472656 -47.550781 181.824219 -36.667969 C 176.871094 -25.074219 169.167969 -15.675781 158.714844 -8.484375 C 148.101562 -1.179688 134.972656 2.46875 119.324219 2.46875 C 101.078125 2.46875 85.199219 -2.394531 71.6875 -12.121094 C 58.445312 -21.65625 48.394531 -34.792969 41.53125 -51.535156 C 34.976562 -67.523438 31.699219 -85.671875 31.699219 -105.976562 C 31.699219 -126.679688 35.0625 -144.261719 41.785156 -158.726562 C 48.753906 -173.722656 58.222656 -185.136719 70.1875 -192.96875 C 82.25 -200.867188 95.605469 -204.8125 110.25 -204.8125 C 130.117188 -204.8125 145.945312 -198.339844 157.734375 -185.394531 C 169.1875 -172.820312 174.914062 -153.554688 174.914062 -127.601562 L 161.234375 -127.601562 L 161.234375 -141.28125 L 164.4375 -141.28125 L 164.4375 -127.601562 L 150.757812 -127.601562 L 150.757812 -194.601562 L 164.4375 -194.601562 L 164.4375 -180.921875 L 160.96875 -180.921875 L 160.96875 -194.601562 L 174.648438 -194.601562 C 174.648438 -186.378906 171.957031 -180.324219 166.574219 -176.4375 C 162.582031 -173.554688 158.3125 -172.113281 153.761719 -172.113281 C 148.757812 -172.113281 143.339844 -173.574219 137.496094 -176.492188 C 134.125 -178.179688 129.875 -179.902344 124.753906 -181.664062 C 120.5 -183.125 114.863281 -183.859375 107.847656 -183.859375 C 95.0625 -183.859375 83.75 -181.601562 73.902344 -177.09375 C 64.082031 -172.59375 55.730469 -166.308594 48.855469 -158.234375 C 41.804688 -149.960938 36.425781 -140.332031 32.714844 -129.359375 C 28.921875 -118.144531 27.027344 -106.078125 27.027344 -93.164062 C 27.027344 -76.804688 30.429688 -62.394531 37.234375 -49.933594 C 43.945312 -37.640625 53.246094 -27.996094 65.132812 -21 C 77.050781 -13.984375 90.933594 -10.476562 106.777344 -10.476562 Z M 106.777344 -10.476562 "/></g></g></g><g fill="#000000" fill-opacity="1"><g transform="translate(2.86456, 214.736573)"><g><path d="M 106.78125 3.203125 C 88.445312 3.203125 72.25 -0.929688 58.1875 -9.203125 C 44.132812 -17.484375 33.144531 -28.875 25.21875 -43.375 C 17.300781 -57.875 13.34375 -74.46875 13.34375 -93.15625 C 13.34375 -107.570312 15.476562 -121.097656 19.75 -133.734375 C 24.019531 -146.367188 30.25 -157.488281 38.4375 -167.09375 C 46.625 -176.707031 56.546875 -184.179688 68.203125 -189.515625 C 79.859375 -194.859375 93.070312 -197.53125 107.84375 -197.53125 C 116.382812 -197.53125 123.5 -196.550781 129.1875 -194.59375 C 134.882812 -192.632812 139.691406 -190.675781 143.609375 -188.71875 C 147.523438 -186.757812 150.90625 -185.78125 153.75 -185.78125 C 155.351562 -185.78125 156.957031 -186.359375 158.5625 -187.515625 C 160.164062 -188.679688 160.96875 -191.039062 160.96875 -194.59375 L 164.4375 -194.59375 L 164.4375 -127.59375 L 161.234375 -127.59375 C 161.234375 -150.019531 156.691406 -166.210938 147.609375 -176.171875 C 138.535156 -186.140625 126.082031 -191.125 110.25 -191.125 C 98.320312 -191.125 87.460938 -187.921875 77.671875 -181.515625 C 67.890625 -175.109375 60.0625 -165.585938 54.1875 -152.953125 C 48.3125 -140.316406 45.375 -124.65625 45.375 -105.96875 C 45.375 -87.46875 48.3125 -71.050781 54.1875 -56.71875 C 60.0625 -42.394531 68.554688 -31.226562 79.671875 -23.21875 C 90.796875 -15.21875 104.015625 -11.21875 119.328125 -11.21875 C 132.140625 -11.21875 142.679688 -14.0625 150.953125 -19.75 C 159.222656 -25.445312 165.316406 -32.878906 169.234375 -42.046875 C 173.148438 -51.210938 175.109375 -61.046875 175.109375 -71.546875 L 178.578125 -71.546875 C 178.578125 -62.285156 177.195312 -53.207031 174.4375 -44.3125 C 171.6875 -35.414062 167.375 -27.363281 161.5 -20.15625 C 155.625 -12.945312 148.191406 -7.25 139.203125 -3.0625 C 130.222656 1.113281 119.414062 3.203125 106.78125 3.203125 Z M 106.78125 3.203125 "/></g></g></g></g></g><g transform="matrix(1, 0, 0, 1, 103, 272)"><g clip-path="url(#8bcbfde785)"><g fill="#000000" fill-opacity="1"><g transform="translate(1.047969, 23.376178)"><g><path d="M 0.46875 -14.640625 L 0.46875 -16.171875 L 9.96875 -16.171875 L 9.96875 -14.640625 L 6.046875 -14.640625 L 6.046875 -0.046875 L 4.390625 -0.046875 L 4.390625 -14.640625 Z M 0.46875 -14.640625 "/></g></g></g><g fill="#000000" fill-opacity="1"><g transform="translate(18.340837, 23.376178)"><g><path d="M 13.453125 -5.34375 C 13.453125 -3.601562 12.878906 -2.222656 11.734375 -1.203125 C 10.660156 -0.253906 9.234375 0.21875 7.453125 0.21875 C 5.648438 0.21875 4.207031 -0.253906 3.125 -1.203125 C 1.988281 -2.222656 1.421875 -3.601562 1.421875 -5.34375 L 1.421875 -16.125 L 3.078125 -16.125 L 3.078125 -5.09375 C 3.078125 -3.875 3.519531 -2.941406 4.40625 -2.296875 C 5.164062 -1.734375 6.179688 -1.453125 7.453125 -1.453125 C 9.421875 -1.453125 10.75 -2.113281 11.4375 -3.4375 C 11.664062 -3.894531 11.78125 -4.445312 11.78125 -5.09375 L 11.78125 -16.125 L 13.453125 -16.125 Z M 13.453125 -5.34375 "/></g></g></g><g fill="#000000" fill-opacity="1"><g transform="translate(40.067891, 23.376178)"><g><path d="M 0.46875 -14.640625 L 0.46875 -16.171875 L 9.96875 -16.171875 L 9.96875 -14.640625 L 6.046875 -14.640625 L 6.046875 -0.046875 L 4.390625 -0.046875 L 4.390625 -14.640625 Z M 0.46875 -14.640625 "/></g></g></g><g fill="#000000" fill-opacity="1"><g transform="translate(57.360759, 23.376178)"><g><path d="M 15.984375 -8.109375 C 15.984375 -9.929688 15.335938 -11.488281 14.046875 -12.78125 C 12.742188 -14.082031 11.175781 -14.734375 9.34375 -14.734375 C 7.53125 -14.734375 5.972656 -14.082031 4.671875 -12.78125 C 3.378906 -11.488281 2.734375 -9.929688 2.734375 -8.109375 C 2.734375 -6.273438 3.378906 -4.710938 4.671875 -3.421875 C 5.972656 -2.117188 7.53125 -1.46875 9.34375 -1.46875 C 11.175781 -1.46875 12.742188 -2.117188 14.046875 -3.421875 C 15.335938 -4.710938 15.984375 -6.273438 15.984375 -8.109375 Z M 17.640625 -8.109375 C 17.640625 -6.972656 17.425781 -5.898438 17 -4.890625 C 16.5625 -3.878906 15.972656 -3 15.234375 -2.25 C 14.472656 -1.488281 13.585938 -0.894531 12.578125 -0.46875 C 11.554688 -0.03125 10.476562 0.1875 9.34375 0.1875 C 8.207031 0.1875 7.140625 -0.03125 6.140625 -0.46875 C 5.128906 -0.894531 4.253906 -1.488281 3.515625 -2.25 C 2.753906 -3 2.160156 -3.878906 1.734375 -4.890625 C 1.285156 -5.898438 1.0625 -6.972656 1.0625 -8.109375 C 1.0625 -9.242188 1.285156 -10.320312 1.734375 -11.34375 C 2.160156 -12.351562 2.753906 -13.226562 3.515625 -13.96875 C 4.253906 -14.707031 5.128906 -15.300781 6.140625 -15.75 C 7.140625 -16.175781 8.207031 -16.390625 9.34375 -16.390625 C 10.476562 -16.390625 11.554688 -16.175781 12.578125 -15.75 C 13.585938 -15.300781 14.472656 -14.707031 15.234375 -13.96875 C 15.972656 -13.226562 16.5625 -12.351562 17 -11.34375 C 17.425781 -10.320312 17.640625 -9.242188 17.640625 -8.109375 Z M 17.640625 -8.109375 "/></g></g></g><g fill="#000000" fill-opacity="1"><g transform="translate(82.929205, 23.376178)"><g><path d="M 3.4375 -7.96875 L 7.1875 -7.96875 C 8.125 -7.96875 8.890625 -8.285156 9.484375 -8.921875 C 10.097656 -9.566406 10.40625 -10.363281 10.40625 -11.3125 C 10.40625 -12.25 10.113281 -13.023438 9.53125 -13.640625 C 8.945312 -14.242188 8.164062 -14.546875 7.1875 -14.546875 L 3.4375 -14.546875 Z M 12.078125 -11.265625 C 12.078125 -9.859375 11.578125 -8.6875 10.578125 -7.75 C 9.691406 -6.925781 8.625 -6.476562 7.375 -6.40625 L 12.328125 0 L 10.109375 0 L 5.390625 -6.375 L 3.4375 -6.375 L 3.4375 0 L 1.78125 0 L 1.78125 -16.125 L 6.953125 -16.125 C 8.390625 -16.125 9.597656 -15.675781 10.578125 -14.78125 C 11.578125 -13.832031 12.078125 -12.660156 12.078125 -11.265625 Z M 12.078125 -11.265625 "/></g></g></g><g fill="#000000" fill-opacity="1"><g transform="translate(102.688144, 23.376178)"><g><path d="M 3.4375 0 L 1.78125 0 L 1.78125 -16.125 L 3.4375 -16.125 Z M 3.4375 0 "/></g></g></g><g fill="#000000" fill-opacity="1"><g transform="translate(114.764301, 23.376178)"><g><path d="M 3.4375 -11.890625 L 3.4375 0 L 1.78125 0 L 1.78125 -17.15625 L 10.84375 -4.265625 L 10.84375 -16.125 L 12.5 -16.125 L 12.5 1 Z M 3.4375 -11.890625 "/></g></g></g><g fill="#000000" fill-opacity="1"><g transform="translate(135.89856, 23.376178)"><g><path d="M 17.6875 -7.546875 L 17.53125 -6.546875 C 17.175781 -4.585938 16.21875 -2.972656 14.65625 -1.703125 C 13.09375 -0.441406 11.332031 0.1875 9.375 0.1875 C 8.226562 0.1875 7.148438 -0.03125 6.140625 -0.46875 C 5.128906 -0.894531 4.253906 -1.488281 3.515625 -2.25 C 2.753906 -3 2.160156 -3.878906 1.734375 -4.890625 C 1.285156 -5.898438 1.0625 -6.984375 1.0625 -8.140625 C 1.0625 -9.273438 1.285156 -10.347656 1.734375 -11.359375 C 2.160156 -12.367188 2.753906 -13.253906 3.515625 -14.015625 C 4.253906 -14.753906 5.128906 -15.347656 6.140625 -15.796875 C 7.148438 -16.222656 8.171875 -16.4375 9.203125 -16.4375 C 11.128906 -16.4375 12.828125 -15.890625 14.296875 -14.796875 C 15.785156 -13.703125 16.800781 -12.265625 17.34375 -10.484375 L 15.578125 -10.484375 C 15.078125 -11.796875 14.265625 -12.835938 13.140625 -13.609375 C 12.003906 -14.390625 10.75 -14.78125 9.375 -14.78125 C 7.539062 -14.78125 5.972656 -14.128906 4.671875 -12.828125 C 3.378906 -11.535156 2.734375 -9.972656 2.734375 -8.140625 C 2.734375 -6.316406 3.378906 -4.75 4.671875 -3.4375 C 5.953125 -2.125 7.519531 -1.46875 9.375 -1.46875 C 10.820312 -1.46875 12.148438 -1.890625 13.359375 -2.734375 C 14.535156 -3.585938 15.363281 -4.707031 15.84375 -6.09375 L 9.296875 -6.09375 L 9.296875 -7.546875 Z M 17.6875 -7.546875 "/></g></g></g><g fill="#000000" fill-opacity="1"><g transform="translate(161.514674, 23.376178)"><g/></g></g></g></g></svg>