<svg xmlns="http://www.w3.org/2000/svg" xmlns:xlink="http://www.w3.org/1999/xlink" width="500" zoomAndPan="magnify" viewBox="0 0 375 374.999991" height="500" preserveAspectRatio="xMidYMid meet" version="1.0"><defs><g/><clipPath id="e5a346bec3"><rect x="0" width="157" y="0" height="260"/></clipPath></defs><g transform="matrix(1, 0, 0, 1, 140, 61)"><g clip-path="url(#e5a346bec3)"><g fill="#fcd34d" fill-opacity="1"><g transform="translate(1.067609, 197.244562)"><g><path d="M 72.4375 0 L 7.796875 0 L 7.796875 -3.375 C 14.023438 -3.375 18.566406 -4.238281 21.421875 -5.96875 C 24.273438 -7.695312 25.703125 -11.503906 25.703125 -17.390625 L 25.703125 -171.875 C 25.703125 -177.9375 24.273438 -181.789062 21.421875 -183.4375 C 18.566406 -185.082031 14.023438 -185.90625 7.796875 -185.90625 L 7.796875 -189.28125 L 133.96875 -189.28125 L 147.734375 -148 L 144.359375 -148 C 139.859375 -159.769531 134.75 -168.289062 129.03125 -173.5625 C 123.320312 -178.84375 116.875 -182.175781 109.6875 -183.5625 C 102.507812 -184.945312 94.332031 -185.726562 85.15625 -185.90625 L 54.53125 -185.90625 L 54.53125 -101 L 84.640625 -101 C 93.472656 -101.175781 100.007812 -102.519531 104.25 -105.03125 C 108.488281 -107.539062 111.253906 -111.691406 112.546875 -117.484375 C 113.847656 -123.285156 114.5 -131.03125 114.5 -140.71875 L 117.875 -140.71875 L 117.875 -54.78125 L 114.5 -54.78125 C 114.5 -65.6875 113.847656 -74.253906 112.546875 -80.484375 C 111.253906 -86.710938 108.488281 -91.125 104.25 -93.71875 C 100.007812 -96.320312 93.472656 -97.625 84.640625 -97.625 L 54.53125 -97.625 L 54.53125 -16.875 C 54.53125 -10.988281 56 -7.222656 58.9375 -5.578125 C 61.882812 -3.929688 66.382812 -3.109375 72.4375 -3.109375 Z M 72.4375 0 "/></g></g></g></g></g></svg>