<svg xmlns="http://www.w3.org/2000/svg" xmlns:xlink="http://www.w3.org/1999/xlink" width="500" zoomAndPan="magnify" viewBox="0 0 375 374.999991" height="500" preserveAspectRatio="xMidYMid meet" version="1.0"><defs><g/><clipPath id="266e483d00"><rect x="0" width="157" y="0" height="260"/></clipPath></defs><g transform="matrix(1, 0, 0, 1, 140, 61)"><g clip-path="url(#266e483d00)"><g fill="#fcd34d" fill-opacity="1"><g transform="translate(1.067609, 197.244562)"><g><path d="M 72.4375 0 L 7.796875 0 L 7.796875 -3.375 C 14.023438 -3.375 18.566406 -4.238281 21.421875 -5.96875 C 24.273438 -7.695312 25.703125 -11.503906 25.703125 -17.390625 L 25.703125 -171.875 C 25.703125 -177.9375 24.273438 -181.789062 21.421875 -183.4375 C 18.566406 -185.082031 14.023438 -185.90625 7.796875 -185.90625 L 7.796875 -189.28125 L 133.96875 -189.28125 L 147.734375 -148 L 144.359375 -148 C 139.859375 -159.769531 134.75 -168.289062 129.03125 -173.5625 C 123.320312 -178.84375 116.875 -182.175781 109.6875 -183.5625 C 102.507812 -184.945312 94.332031 -185.726562 85.15625 -185.90625 L 54.53125 -185.90625 L 54.53125 -101 L 84.640625 -101 C 93.472656 -101.175781 100.007812 -102.519531 104.25 -105.03125 C 108.488281 -107.539062 111.253906 -111.691406 112.546875 -117.484375 C 113.847656 -123.285156 114.5 -131.03125 114.5 -140.71875 L 117.875 -140.71875 L 117.875 -54.78125 L 114.5 -54.78125 C 114.5 -65.6875 113.847656 -74.253906 112.546875 -80.484375 C 111.253906 -86.710938 108.488281 -91.125 104.25 -93.71875 C 100.007812 -96.320312 93.472656 -97.625 84.640625 -97.625 L 54.53125 -97.625 L 54.53125 -16.875 C 54.53125 -10.988281 56 -7.222656 58.9375 -5.578125 C 61.882812 -3.929688 66.382812 -3.109375 72.4375 -3.109375 Z M 72.4375 0 "/></g></g></g></g></g><g fill="#020617" fill-opacity="1"><g transform="translate(64.324219, 257.999983)"><g><path d="M 106.777344 16.882812 C 85.964844 16.882812 67.457031 12.117188 51.253906 2.582031 C 35.023438 -6.972656 22.34375 -20.105469 13.21875 -36.824219 C 4.183594 -53.371094 -0.332031 -72.152344 -0.332031 -93.164062 C -0.332031 -109.078125 2.042969 -124.066406 6.792969 -138.121094 C 11.625 -152.417969 18.703125 -165.035156 28.027344 -175.980469 C 37.523438 -187.128906 49.015625 -195.792969 62.507812 -201.972656 C 75.972656 -208.136719 91.085938 -211.222656 107.847656 -211.222656 C 117.914062 -211.222656 126.515625 -209.996094 133.648438 -207.542969 C 139.917969 -205.386719 145.28125 -203.195312 149.734375 -200.96875 C 151.726562 -199.972656 153.066406 -199.476562 153.761719 -199.476562 C 152.414062 -199.476562 151.347656 -199.191406 150.554688 -198.621094 C 148.996094 -197.496094 147.949219 -196.144531 147.414062 -194.566406 C 147.332031 -194.320312 147.28125 -194.128906 147.261719 -193.996094 C 147.28125 -194.125 147.289062 -194.328125 147.289062 -194.605469 L 147.289062 -208.285156 L 178.121094 -208.285156 L 178.121094 -113.917969 L 147.554688 -113.917969 L 147.554688 -127.601562 C 147.554688 -146.492188 144.207031 -159.617188 137.507812 -166.972656 C 131.144531 -173.960938 122.058594 -177.453125 110.25 -177.453125 C 101.046875 -177.453125 92.6875 -174.996094 85.175781 -170.078125 C 77.566406 -165.097656 71.371094 -157.46875 66.597656 -147.195312 C 61.574219 -136.386719 59.0625 -122.648438 59.0625 -105.976562 C 59.0625 -89.265625 61.65625 -74.578125 66.847656 -61.914062 C 71.730469 -50.003906 78.675781 -40.808594 87.679688 -34.328125 C 96.414062 -28.039062 106.960938 -24.894531 119.324219 -24.894531 C 129.304688 -24.894531 137.261719 -26.9375 143.203125 -31.023438 C 149.300781 -35.21875 153.785156 -40.683594 156.664062 -47.417969 C 159.84375 -54.867188 161.4375 -62.910156 161.4375 -71.542969 L 161.4375 -85.222656 L 192.269531 -85.222656 L 192.269531 -71.542969 C 192.269531 -60.90625 190.683594 -50.480469 187.519531 -40.261719 C 184.234375 -29.675781 179.097656 -20.089844 172.109375 -11.511719 C 164.914062 -2.679688 155.871094 4.269531 144.984375 9.335938 C 134.167969 14.367188 121.433594 16.882812 106.777344 16.882812 Z M 106.777344 -10.476562 C 117.394531 -10.476562 126.285156 -12.144531 133.441406 -15.472656 C 140.527344 -18.773438 146.347656 -23.214844 150.898438 -28.796875 C 155.652344 -34.632812 159.148438 -41.15625 161.382812 -48.363281 C 163.730469 -55.941406 164.90625 -63.667969 164.90625 -71.542969 L 178.585938 -71.542969 L 178.585938 -57.859375 L 175.117188 -57.859375 L 175.117188 -71.542969 L 188.796875 -71.542969 C 188.796875 -59.175781 186.472656 -47.550781 181.824219 -36.667969 C 176.871094 -25.074219 169.167969 -15.675781 158.714844 -8.484375 C 148.105469 -1.183594 134.972656 2.46875 119.324219 2.46875 C 101.078125 2.46875 85.199219 -2.394531 71.691406 -12.121094 C 58.449219 -21.65625 48.394531 -34.792969 41.53125 -51.535156 C 34.976562 -67.527344 31.699219 -85.671875 31.699219 -105.976562 C 31.699219 -126.679688 35.0625 -144.261719 41.785156 -158.726562 C 48.753906 -173.722656 58.222656 -185.136719 70.1875 -192.972656 C 82.253906 -200.867188 95.605469 -204.816406 110.25 -204.816406 C 130.117188 -204.816406 145.949219 -198.34375 157.738281 -185.398438 C 169.191406 -172.820312 174.917969 -153.554688 174.917969 -127.601562 L 161.234375 -127.601562 L 161.234375 -141.28125 L 164.441406 -141.28125 L 164.441406 -127.601562 L 150.757812 -127.601562 L 150.757812 -194.605469 L 164.441406 -194.605469 L 164.441406 -180.921875 L 160.96875 -180.921875 L 160.96875 -194.605469 L 174.652344 -194.605469 C 174.652344 -186.382812 171.960938 -180.328125 166.578125 -176.441406 C 162.585938 -173.554688 158.3125 -172.113281 153.761719 -172.113281 C 148.761719 -172.113281 143.339844 -173.574219 137.5 -176.496094 C 134.125 -178.183594 129.878906 -179.90625 124.753906 -181.667969 C 120.5 -183.128906 114.863281 -183.859375 107.847656 -183.859375 C 95.066406 -183.859375 83.75 -181.605469 73.902344 -177.09375 C 64.082031 -172.597656 55.730469 -166.308594 48.855469 -158.238281 C 41.804688 -149.960938 36.425781 -140.335938 32.714844 -129.359375 C 28.925781 -118.144531 27.027344 -106.078125 27.027344 -93.164062 C 27.027344 -76.804688 30.429688 -62.394531 37.234375 -49.933594 C 43.945312 -37.640625 53.246094 -27.996094 65.132812 -21 C 77.050781 -13.984375 90.933594 -10.476562 106.777344 -10.476562 Z M 106.777344 -10.476562 "/></g></g></g><g fill="#fcd34d" fill-opacity="1"><g transform="translate(64.324219, 257.999983)"><g><path d="M 106.78125 3.203125 C 88.445312 3.203125 72.25 -0.929688 58.1875 -9.203125 C 44.132812 -17.484375 33.144531 -28.875 25.21875 -43.375 C 17.300781 -57.882812 13.34375 -74.484375 13.34375 -93.171875 C 13.34375 -107.585938 15.476562 -121.113281 19.75 -133.75 C 24.019531 -146.382812 30.25 -157.503906 38.4375 -167.109375 C 46.625 -176.722656 56.546875 -184.195312 68.203125 -189.53125 C 79.859375 -194.875 93.070312 -197.546875 107.84375 -197.546875 C 116.382812 -197.546875 123.503906 -196.566406 129.203125 -194.609375 C 134.898438 -192.648438 139.707031 -190.691406 143.625 -188.734375 C 147.539062 -186.773438 150.921875 -185.796875 153.765625 -185.796875 C 155.367188 -185.796875 156.96875 -186.375 158.5625 -187.53125 C 160.164062 -188.6875 160.96875 -191.046875 160.96875 -194.609375 L 164.4375 -194.609375 L 164.4375 -127.609375 L 161.234375 -127.609375 C 161.234375 -150.023438 156.695312 -166.21875 147.625 -176.1875 C 138.550781 -186.15625 126.09375 -191.140625 110.25 -191.140625 C 98.320312 -191.140625 87.460938 -187.9375 77.671875 -181.53125 C 67.890625 -175.125 60.0625 -165.601562 54.1875 -152.96875 C 48.3125 -140.332031 45.375 -124.671875 45.375 -105.984375 C 45.375 -87.472656 48.3125 -71.050781 54.1875 -56.71875 C 60.0625 -42.394531 68.5625 -31.226562 79.6875 -23.21875 C 90.8125 -15.21875 104.023438 -11.21875 119.328125 -11.21875 C 132.140625 -11.21875 142.679688 -14.0625 150.953125 -19.75 C 159.234375 -25.445312 165.332031 -32.878906 169.25 -42.046875 C 173.164062 -51.210938 175.125 -61.046875 175.125 -71.546875 L 178.59375 -71.546875 C 178.59375 -62.285156 177.210938 -53.207031 174.453125 -44.3125 C 171.691406 -35.414062 167.375 -27.363281 161.5 -20.15625 C 155.632812 -12.945312 148.207031 -7.25 139.21875 -3.0625 C 130.226562 1.113281 119.414062 3.203125 106.78125 3.203125 Z M 106.78125 3.203125 "/></g></g></g><g fill="#fcd34d" fill-opacity="1"><g transform="translate(110.672539, 295.766875)"><g><path d="M 0.46875 -14.640625 L 0.46875 -16.1875 L 9.96875 -16.1875 L 9.96875 -14.640625 L 6.046875 -14.640625 L 6.046875 -0.046875 L 4.390625 -0.046875 L 4.390625 -14.640625 Z M 0.46875 -14.640625 "/></g></g></g><g fill="#fcd34d" fill-opacity="1"><g transform="translate(127.968257, 295.766875)"><g><path d="M 13.453125 -5.34375 C 13.453125 -3.601562 12.882812 -2.222656 11.75 -1.203125 C 10.675781 -0.253906 9.242188 0.21875 7.453125 0.21875 C 5.648438 0.21875 4.210938 -0.253906 3.140625 -1.203125 C 1.992188 -2.222656 1.421875 -3.601562 1.421875 -5.34375 L 1.421875 -16.140625 L 3.078125 -16.140625 L 3.078125 -5.109375 C 3.078125 -3.890625 3.523438 -2.953125 4.421875 -2.296875 C 5.171875 -1.734375 6.179688 -1.453125 7.453125 -1.453125 C 9.429688 -1.453125 10.757812 -2.113281 11.4375 -3.4375 C 11.675781 -3.894531 11.796875 -4.453125 11.796875 -5.109375 L 11.796875 -16.140625 L 13.453125 -16.140625 Z M 13.453125 -5.34375 "/></g></g></g><g fill="#fcd34d" fill-opacity="1"><g transform="translate(149.699384, 295.766875)"><g><path d="M 0.46875 -14.640625 L 0.46875 -16.1875 L 9.96875 -16.1875 L 9.96875 -14.640625 L 6.046875 -14.640625 L 6.046875 -0.046875 L 4.390625 -0.046875 L 4.390625 -14.640625 Z M 0.46875 -14.640625 "/></g></g></g><g fill="#fcd34d" fill-opacity="1"><g transform="translate(166.995102, 295.766875)"><g><path d="M 16 -8.109375 C 16 -9.929688 15.347656 -11.492188 14.046875 -12.796875 C 12.753906 -14.085938 11.1875 -14.734375 9.34375 -14.734375 C 7.53125 -14.734375 5.972656 -14.085938 4.671875 -12.796875 C 3.378906 -11.492188 2.734375 -9.929688 2.734375 -8.109375 C 2.734375 -6.273438 3.378906 -4.710938 4.671875 -3.421875 C 5.972656 -2.117188 7.53125 -1.46875 9.34375 -1.46875 C 11.1875 -1.46875 12.753906 -2.117188 14.046875 -3.421875 C 15.347656 -4.710938 16 -6.273438 16 -8.109375 Z M 17.65625 -8.109375 C 17.65625 -6.972656 17.441406 -5.898438 17.015625 -4.890625 C 16.578125 -3.878906 15.984375 -3 15.234375 -2.25 C 14.472656 -1.488281 13.585938 -0.894531 12.578125 -0.46875 C 11.566406 -0.03125 10.488281 0.1875 9.34375 0.1875 C 8.207031 0.1875 7.140625 -0.03125 6.140625 -0.46875 C 5.128906 -0.894531 4.253906 -1.488281 3.515625 -2.25 C 2.753906 -3 2.160156 -3.878906 1.734375 -4.890625 C 1.285156 -5.898438 1.0625 -6.972656 1.0625 -8.109375 C 1.0625 -9.253906 1.285156 -10.332031 1.734375 -11.34375 C 2.160156 -12.351562 2.753906 -13.234375 3.515625 -13.984375 C 4.253906 -14.722656 5.128906 -15.316406 6.140625 -15.765625 C 7.140625 -16.191406 8.207031 -16.40625 9.34375 -16.40625 C 10.488281 -16.40625 11.566406 -16.191406 12.578125 -15.765625 C 13.585938 -15.316406 14.472656 -14.722656 15.234375 -13.984375 C 15.984375 -13.234375 16.578125 -12.351562 17.015625 -11.34375 C 17.441406 -10.332031 17.65625 -9.253906 17.65625 -8.109375 Z M 17.65625 -8.109375 "/></g></g></g><g fill="#fcd34d" fill-opacity="1"><g transform="translate(192.568675, 295.766875)"><g><path d="M 3.4375 -7.96875 L 7.1875 -7.96875 C 8.125 -7.96875 8.894531 -8.285156 9.5 -8.921875 C 10.113281 -9.566406 10.421875 -10.367188 10.421875 -11.328125 C 10.421875 -12.253906 10.128906 -13.023438 9.546875 -13.640625 C 8.953125 -14.242188 8.164062 -14.546875 7.1875 -14.546875 L 3.4375 -14.546875 Z M 12.078125 -11.28125 C 12.078125 -9.863281 11.578125 -8.691406 10.578125 -7.765625 C 9.691406 -6.941406 8.625 -6.488281 7.375 -6.40625 L 12.34375 0 L 10.109375 0 L 5.390625 -6.390625 L 3.4375 -6.390625 L 3.4375 0 L 1.78125 0 L 1.78125 -16.140625 L 6.953125 -16.140625 C 8.390625 -16.140625 9.597656 -15.6875 10.578125 -14.78125 C 11.578125 -13.832031 12.078125 -12.664062 12.078125 -11.28125 Z M 12.078125 -11.28125 "/></g></g></g><g fill="#fcd34d" fill-opacity="1"><g transform="translate(212.331155, 295.766875)"><g><path d="M 3.4375 0 L 1.78125 0 L 1.78125 -16.140625 L 3.4375 -16.140625 Z M 3.4375 0 "/></g></g></g><g fill="#fcd34d" fill-opacity="1"><g transform="translate(224.408746, 295.766875)"><g><path d="M 3.4375 -11.890625 L 3.4375 0 L 1.78125 0 L 1.78125 -17.15625 L 10.84375 -4.265625 L 10.84375 -16.140625 L 12.515625 -16.140625 L 12.515625 1 Z M 3.4375 -11.890625 "/></g></g></g><g fill="#fcd34d" fill-opacity="1"><g transform="translate(245.546908, 295.766875)"><g><path d="M 17.703125 -7.546875 L 17.546875 -6.546875 C 17.191406 -4.585938 16.234375 -2.972656 14.671875 -1.703125 C 13.097656 -0.441406 11.332031 0.1875 9.375 0.1875 C 8.238281 0.1875 7.160156 -0.03125 6.140625 -0.46875 C 5.128906 -0.894531 4.253906 -1.488281 3.515625 -2.25 C 2.753906 -3 2.160156 -3.878906 1.734375 -4.890625 C 1.285156 -5.898438 1.0625 -6.984375 1.0625 -8.140625 C 1.0625 -9.273438 1.285156 -10.351562 1.734375 -11.375 C 2.160156 -12.382812 2.753906 -13.269531 3.515625 -14.03125 C 4.253906 -14.769531 5.128906 -15.363281 6.140625 -15.8125 C 7.160156 -16.238281 8.179688 -16.453125 9.203125 -16.453125 C 11.140625 -16.453125 12.84375 -15.90625 14.3125 -14.8125 C 15.800781 -13.71875 16.8125 -12.273438 17.34375 -10.484375 L 15.59375 -10.484375 C 15.082031 -11.796875 14.269531 -12.84375 13.15625 -13.625 C 12.007812 -14.394531 10.75 -14.78125 9.375 -14.78125 C 7.539062 -14.78125 5.972656 -14.132812 4.671875 -12.84375 C 3.378906 -11.539062 2.734375 -9.972656 2.734375 -8.140625 C 2.734375 -6.316406 3.378906 -4.75 4.671875 -3.4375 C 5.953125 -2.125 7.519531 -1.46875 9.375 -1.46875 C 10.832031 -1.46875 12.160156 -1.890625 13.359375 -2.734375 C 14.546875 -3.585938 15.378906 -4.707031 15.859375 -6.09375 L 9.296875 -6.09375 L 9.296875 -7.546875 Z M 17.703125 -7.546875 "/></g></g></g></svg>